# 3ds Max Wavefront OBJ Exporter v0.97b - (c)2007 guruware
# File Created: 25.08.2016 17:10:43

mtllib detached_house_1b.mtl

#
# object Box45
#

v  -5.5000 0.0000 -10.3059
v  -5.5000 0.0000 -11.0000
v  5.5000 0.0000 -11.0000
v  -5.5000 0.0000 -3.6966
v  -5.5000 0.0000 -0.7553
v  -5.5000 0.0000 1.2324
v  -5.5000 0.0000 5.2254
v  -5.5000 0.0000 7.5696
v  -5.5000 0.0000 11.0000
v  5.5000 0.0000 11.0000
v  5.5000 9.0000 11.0000
v  0.0000 13.2120 11.0000
v  -5.5000 9.0000 11.0000
v  -5.5000 4.5000 11.0000
v  -5.5000 3.1570 11.0000
v  5.5000 9.0000 -11.0000
v  -5.5000 3.1594 -11.0000
v  -5.5000 4.5000 -11.0000
v  -5.5000 9.0000 -11.0000
v  0.0000 13.2120 -11.0000
v  -5.5000 3.1581 1.2324
v  -5.5000 3.1583 -0.7553
v  6.0000 8.6323 -11.0000
v  6.0000 8.6323 11.0000
v  -5.5000 9.0000 9.1591
v  -6.0000 8.6323 11.0000
v  -5.5000 9.0000 5.8432
v  -5.5000 9.0000 -3.1500
v  -5.5000 9.0000 -6.4659
v  -6.0000 8.6323 -11.0000
v  0.0000 13.2120 11.5000
v  -5.5000 9.0000 11.5000
v  0.0000 13.7120 11.5000
v  0.0000 13.7120 11.0000
v  5.5000 9.0000 11.5000
v  0.0000 13.2120 -11.5000
v  5.5000 9.0000 -11.5000
v  -5.5000 9.0000 -11.5000
v  6.0000 8.6323 -11.5000
v  6.0000 8.6323 11.5000
v  -6.0000 8.6323 11.5000
v  -6.0000 8.6323 -11.5000
v  0.0000 13.7120 -11.5000
v  -6.0000 9.1323 -11.5000
v  -6.0000 9.1323 11.5000
v  6.0000 9.1323 11.5000
v  6.0000 9.1323 -11.5000
v  -5.4913 5.8510 -3.1500
v  -5.5000 4.5000 -3.1500
v  -5.5000 4.5000 5.8432
v  -5.4913 8.3425 -3.1500
v  -5.4913 5.9755 5.8432
v  -5.4913 8.4671 5.8432
v  -5.5000 4.5000 -6.4659
v  -5.4913 5.8510 -6.4659
v  -5.5000 8.3480 -6.4659
v  -5.4913 6.0910 -6.2259
v  -5.4913 6.0910 -3.3900
v  -5.4913 8.1025 -3.3900
v  -5.5000 8.1080 -6.2259
v  -5.4913 8.4671 9.1591
v  -5.4913 5.9755 9.1591
v  -5.5000 4.5000 9.1591
v  -5.4922 8.2924 8.9875
v  -5.4922 8.2924 6.0015
v  -5.4913 6.1326 6.0015
v  -5.4913 6.1326 8.9875
v  -5.5553 5.9755 9.1591
v  -5.5553 8.4671 9.1591
v  -5.5562 8.2924 8.9875
v  -5.5553 6.1326 8.9875
v  -5.5553 8.4671 5.8432
v  -5.5562 8.2924 6.0015
v  -5.5553 5.9755 5.8432
v  -5.5553 6.1326 6.0015
v  -5.4913 6.2155 6.0832
v  -5.4913 8.2271 6.0832
v  -5.5640 8.3479 -6.4658
v  -5.5553 5.8509 -6.4658
v  -5.5553 6.0909 -6.2258
v  -5.5640 8.1079 -6.2258
v  -5.5553 5.8509 -3.1500
v  -5.5553 6.0909 -3.3900
v  -5.5553 8.3424 -3.1500
v  -5.5553 8.1024 -3.3900
v  -5.5000 3.1594 -10.3059
v  -5.5000 3.1586 -3.6966
v  -5.5000 3.1577 5.2254
v  -5.5000 3.1574 7.5696
v  -5.5000 2.6469 7.4696
v  -5.5000 2.6471 5.3254
v  -5.5000 1.3299 5.3254
v  -5.5000 1.3298 7.4696
v  -5.5000 2.7468 7.5696
v  -5.5000 1.2298 7.5696
v  -5.5000 1.2299 5.2254
v  -5.5000 2.7471 5.2254
v  -5.6000 1.2298 7.5696
v  -5.6000 2.7468 7.5696
v  -5.6000 2.6469 7.4696
v  -5.6000 1.3298 7.4696
v  -5.6000 2.7471 5.2254
v  -5.6000 2.6471 5.3254
v  -5.6000 1.2299 5.2254
v  -5.6000 1.3299 5.3254
# 105 vertices

vn 0.0000 -1.0000 -0.0000
vn 0.0000 0.0000 1.0000
vn 1.0000 0.0000 -0.0000
vn 0.0000 0.0000 -1.0000
vn -1.0000 0.0000 -0.0000
vn -0.5925 -0.8056 -0.0000
vn 0.5925 -0.8056 -0.0000
vn 0.6080 -0.7939 -0.0000
vn -0.6080 -0.7939 -0.0000
vn -0.5925 0.8056 0.0000
vn -0.6067 0.7949 0.0000
vn -0.6067 0.7949 -0.0000
vn -1.0000 0.0000 0.0000
vn 0.6067 0.7949 -0.0000
vn -0.0000 0.0000 -1.0000
vn -1.0000 0.0041 -0.0004
vn -1.0000 0.0032 -0.0000
vn -1.0000 0.0026 0.0004
vn -0.9999 -0.0100 -0.0022
vn -0.9999 -0.0106 -0.0010
vn -1.0000 0.0044 0.0015
vn -0.9999 -0.0107 0.0003
vn -0.9999 -0.0164 -0.0000
vn -1.0000 -0.0003 0.0006
vn -1.0000 0.0024 0.0008
vn -1.0000 0.0044 0.0029
vn -1.0000 -0.0018 -0.0001
vn -1.0000 -0.0026 0.0019
vn -1.0000 -0.0017 0.0012
vn -1.0000 -0.0043 0.0031
vn -1.0000 0.0010 -0.0013
vn -0.9999 -0.0102 -0.0050
vn -0.9996 -0.0149 -0.0235
vn -1.0000 0.0031 -0.0023
vn -1.0000 0.0030 -0.0000
vn -1.0000 -0.0004 0.0000
vn -1.0000 -0.0004 -0.0000
vn -1.0000 0.0000 0.0056
vn -1.0000 -0.0004 -0.0004
vn -1.0000 0.0055 0.0000
vn -1.0000 -0.0004 -0.0066
vn -1.0000 -0.0000 0.0000
vn -1.0000 -0.0035 0.0035
vn -1.0000 -0.0043 -0.0043
vn -1.0000 0.0026 0.0026
vn -1.0000 -0.0031 0.0031
vn -0.0000 -1.0000 -0.0000
vn 0.0000 1.0000 -0.0000
vn 0.0000 1.0000 0.0000
vn -0.0000 -0.0000 1.0000
vn 0.0013 0.0000 1.0000
vn -0.0013 1.0000 0.0016
vn -0.0013 -0.0000 -1.0000
vn 0.0013 -1.0000 -0.0000
vn 0.0013 -1.0000 -0.0019
vn -0.0013 0.0000 -1.0000
vn -0.0013 1.0000 -0.0000
vn 0.0000 1.0000 0.0001
vn 0.0000 -1.0000 -0.0001
# 59 vertex normals

vt 1.0000 0.9685 0.0000
vt 1.0000 1.0000 0.0000
vt 0.0000 1.0000 0.0000
vt 1.0000 0.6680 0.0000
vt 1.0000 0.5343 0.0000
vt 1.0000 0.4440 0.0000
vt 1.0000 0.2625 0.0000
vt 1.0000 0.1559 0.0000
vt 1.0000 0.0000 0.0000
vt 0.0000 0.0000 0.0000
vt 0.5000 1.0000 0.0000
vt 0.0000 0.5000 0.0000
vt 0.0000 0.2725 0.0000
vt 1.0000 0.2275 0.0000
vt 1.0000 0.5000 0.0000
vt 0.5560 0.0000 0.0000
vt 0.5560 0.2525 0.0000
vt 0.4657 0.2485 0.0000
vt 0.4657 0.0000 0.0000
vt 0.6583 1.0000 0.0000
vt 0.5075 1.0000 0.0000
vt 0.3568 1.0000 0.0000
vt 0.2061 1.0000 0.0000
vt 0.5000 0.0000 0.0000
vt 0.3568 0.6365 0.0000
vt 0.3568 0.5000 0.0000
vt 0.5075 0.5000 0.0000
vt 0.3568 0.9133 0.0000
vt 0.5075 0.6503 0.0000
vt 0.5075 0.9272 0.0000
vt 0.2061 0.5000 0.0000
vt 0.2061 0.6365 0.0000
vt 0.2061 0.9133 0.0000
vt 0.6583 0.9272 0.0000
vt 0.6583 0.6503 0.0000
vt 0.6583 0.5000 0.0000
vt 1.0000 0.2725 0.0000
vt 0.0000 0.2275 0.0000
vt 0.0315 0.2289 0.0000
vt 0.3320 0.2424 0.0000
vt 0.7375 0.2607 0.0000
vt 0.8441 0.2655 0.0000
vt 0.8441 0.2310 0.0000
vt 0.7375 0.2268 0.0000
vt 0.7375 0.1015 0.0000
vt 0.8441 0.1034 0.0000
vt 0.0315 0.0000 0.0000
vt 0.3320 0.0000 0.0000
vt 0.8441 0.0000 0.0000
vt 0.7375 0.0000 0.0000
# 50 texture coords

g Box45
usemtl 12___Default
f 1/1/1 2/2/1 3/3/1 
f 4/4/1 1/1/1 3/3/1 
f 5/5/1 4/4/1 3/3/1 
f 6/6/1 5/5/1 3/3/1 
f 7/7/1 6/6/1 3/3/1 
f 8/8/1 7/7/1 3/3/1 
f 9/9/1 8/8/1 3/3/1 
f 9/9/1 3/3/1 10/10/1 
f 9/10/2 10/9/2 11/2/2 
f 9/10/2 11/2/2 12/11/2 
f 12/11/2 13/3/2 14/12/2 
f 12/11/2 14/12/2 15/13/2 
f 9/10/2 12/11/2 15/13/2 
f 16/2/3 11/3/3 10/10/3 
f 10/10/3 3/9/3 16/2/3 
f 3/10/4 2/9/4 17/14/4 
f 3/10/4 17/14/4 18/15/4 
f 3/10/4 18/15/4 19/2/4 
f 3/10/4 19/2/4 20/11/4 
f 3/10/4 20/11/4 16/3/4 
usemtl black
f 6/16/5 21/17/5 22/18/5 
f 22/18/5 5/19/5 6/16/5 
usemtl 11___Default
f 23/2/6 24/3/6 11/3/6 
f 11/3/6 16/2/6 23/2/6 
f 25/20/7 13/2/7 26/2/7 
f 27/21/7 25/20/7 26/2/7 
f 28/22/7 27/21/7 26/2/7 
f 29/23/7 28/22/7 26/2/7 
f 19/3/7 29/23/7 26/2/7 
f 19/3/7 26/2/7 30/3/7 
f 31/11/8 32/3/8 13/3/8 
f 13/3/8 12/11/8 31/11/8 
f 33/24/3 31/11/3 12/11/3 
f 12/11/3 34/24/3 33/24/3 
f 35/2/9 31/11/9 12/11/9 
f 12/11/9 11/2/9 35/2/9 
f 31/11/5 33/24/5 34/24/5 
f 34/24/5 12/11/5 31/11/5 
f 36/11/9 37/3/9 16/3/9 
f 16/3/9 20/11/9 36/11/9 
f 38/2/8 36/11/8 20/11/8 
f 20/11/8 19/2/8 38/2/8 
f 37/2/6 39/2/6 23/2/6 
f 23/2/6 16/2/6 37/2/6 
f 40/3/6 35/3/6 11/3/6 
f 11/3/6 24/3/6 40/3/6 
f 13/2/10 26/2/10 32/2/10 
f 41/2/10 32/2/10 26/2/10 
f 42/3/7 38/3/7 19/3/7 
f 19/3/7 30/3/7 42/3/7 
f 43/11/11 44/3/11 45/10/11 
f 45/10/12 33/24/12 43/11/12 
f 33/24/2 45/10/2 41/2/2 
f 33/24/2 41/2/2 31/11/2 
f 42/3/13 41/2/13 45/10/13 
f 45/10/13 44/3/13 42/3/13 
f 33/24/14 46/9/14 47/2/14 
f 47/2/14 43/11/14 33/24/14 
f 46/9/3 40/3/3 39/2/3 
f 39/2/3 47/2/3 46/9/3 
f 40/3/2 46/9/2 33/24/2 
f 33/24/2 31/11/2 40/3/2 
f 39/2/4 36/11/4 43/11/4 
f 43/11/4 47/2/4 39/2/4 
f 43/11/15 36/11/15 42/3/15 
f 42/3/15 44/3/15 43/11/15 
usemtl 12___Default
f 48/25/16 49/26/17 50/27/18 
f 51/28/19 48/25/16 50/27/18 
f 28/22/20 51/28/19 50/27/18 
f 28/22/20 50/27/18 52/29/21 
f 28/22/20 52/29/21 53/30/22 
f 27/21/23 28/22/20 53/30/22 
f 19/3/24 18/12/5 54/31/25 
f 19/3/24 54/31/25 55/32/26 
f 19/3/24 55/32/26 56/33/27 
f 29/23/5 19/3/24 56/33/27 
usemtl grey
f 57/32/28 58/25/5 59/28/29 
f 59/28/29 60/33/30 57/32/28 
usemtl 12___Default
f 14/15/31 13/2/5 25/20/32 
f 14/15/31 25/20/32 61/34/33 
f 14/15/31 61/34/33 62/35/34 
f 63/36/35 14/15/31 62/35/34 
usemtl grey
f 64/34/36 65/30/36 66/29/36 
f 66/29/36 67/35/37 64/34/36 
usemtl 12___Default
f 25/20/32 27/21/23 53/30/22 
f 53/30/22 61/34/33 25/20/32 
f 50/27/18 63/36/35 62/35/34 
f 62/35/34 52/29/21 50/27/18 
f 54/31/25 49/26/17 48/25/16 
f 48/25/16 55/32/26 54/31/25 
f 28/22/20 29/23/5 56/33/27 
f 56/33/27 51/28/19 28/22/20 
usemtl black
f 68/35/38 69/34/38 70/34/38 
f 70/34/39 71/35/39 68/35/39 
f 69/34/40 72/30/40 73/30/40 
f 73/30/40 70/34/40 69/34/40 
f 72/30/5 74/29/5 75/29/5 
f 75/29/41 73/30/41 72/30/41 
f 74/29/13 68/35/13 71/35/13 
f 71/35/42 75/29/42 74/29/42 
usemtl 12___Default
f 53/30/5 52/29/5 76/29/5 
f 76/29/5 77/30/5 53/30/5 
usemtl black
f 78/33/43 79/32/43 80/32/43 
f 80/32/44 81/33/44 78/33/44 
f 79/32/5 82/25/5 83/25/5 
f 83/25/5 80/32/5 79/32/5 
f 82/25/5 84/28/5 85/28/5 
f 85/28/5 83/25/5 82/25/5 
f 84/28/45 78/33/45 81/33/45 
f 81/33/46 85/28/46 84/28/46 
usemtl 12___Default
f 53/30/4 52/29/4 74/29/4 
f 74/29/4 72/30/4 53/30/4 
f 52/29/1 62/35/1 68/35/1 
f 68/35/47 74/29/47 52/29/47 
f 62/35/2 61/34/2 69/34/2 
f 69/34/2 68/35/2 62/35/2 
f 61/34/48 53/30/48 72/30/48 
f 72/30/48 69/34/48 61/34/48 
usemtl black
f 64/34/15 67/35/15 71/35/15 
f 71/35/15 70/34/15 64/34/15 
usemtl 12___Default
f 67/35/48 66/29/48 75/29/48 
f 75/29/49 71/35/49 67/35/49 
usemtl black
f 66/29/50 65/30/50 73/30/50 
f 73/30/50 75/29/50 66/29/50 
f 65/30/1 64/34/1 70/34/1 
f 70/34/1 73/30/1 65/30/1 
usemtl 12___Default
f 48/25/51 51/28/51 84/28/51 
f 84/28/51 82/25/51 48/25/51 
usemtl black
f 51/28/52 56/33/52 78/33/52 
f 78/33/52 84/28/52 51/28/52 
f 56/33/53 55/32/53 79/32/53 
f 79/32/53 78/33/53 56/33/53 
usemtl 12___Default
f 55/32/54 48/25/54 82/25/54 
f 82/25/54 79/32/54 55/32/54 
usemtl black
f 57/32/51 60/33/51 81/33/51 
f 81/33/51 80/32/51 57/32/51 
f 60/33/55 59/28/55 85/28/55 
f 85/28/55 81/33/55 60/33/55 
usemtl 12___Default
f 59/28/56 58/25/56 83/25/56 
f 83/25/56 85/28/56 59/28/56 
f 58/25/57 57/32/57 80/32/57 
f 80/32/57 83/25/57 58/25/57 
f 15/37/5 14/15/31 63/36/35 
f 15/37/5 63/36/35 50/27/18 
f 15/37/5 50/27/18 49/26/17 
f 15/37/5 49/26/17 54/31/25 
f 15/37/5 54/31/25 18/12/5 
f 18/12/5 17/38/5 86/39/5 
f 18/12/5 86/39/5 87/40/5 
f 18/12/5 87/40/5 22/18/5 
f 18/12/5 22/18/5 21/17/5 
f 18/12/5 21/17/5 88/41/5 
f 18/12/5 88/41/5 89/42/5 
f 15/37/5 18/12/5 89/42/5 
usemtl grey
f 90/43/5 91/44/5 92/45/5 
f 92/45/5 93/46/5 90/43/5 
usemtl white
f 86/39/5 1/47/5 4/48/5 
f 4/48/5 87/40/5 86/39/5 
usemtl 12___Default
f 9/9/5 15/37/5 89/42/5 
f 9/9/5 89/42/5 94/43/5 
f 9/9/5 94/43/5 95/46/5 
f 8/49/5 9/9/5 95/46/5 
f 21/17/5 6/16/5 7/50/5 
f 21/17/5 7/50/5 96/45/5 
f 21/17/5 96/45/5 97/44/5 
f 88/41/5 21/17/5 97/44/5 
f 89/42/5 88/41/5 97/44/5 
f 97/44/5 94/43/5 89/42/5 
f 7/50/5 8/49/5 95/46/5 
f 95/46/5 96/45/5 7/50/5 
f 98/46/5 99/43/5 100/43/5 
f 100/43/5 101/46/5 98/46/5 
f 99/43/5 102/44/5 103/44/5 
f 103/44/5 100/43/5 99/43/5 
f 102/44/5 104/45/5 105/45/5 
f 105/45/5 103/44/5 102/44/5 
f 104/45/5 98/46/5 101/46/5 
f 101/46/5 105/45/5 104/45/5 
f 95/46/2 94/43/2 99/43/2 
f 99/43/2 98/46/2 95/46/2 
f 94/43/58 97/44/58 102/44/58 
f 102/44/58 99/43/58 94/43/58 
f 97/44/4 96/45/4 104/45/4 
f 104/45/4 102/44/4 97/44/4 
f 96/45/1 95/46/1 98/46/1 
f 98/46/1 104/45/1 96/45/1 
f 90/43/4 93/46/4 101/46/4 
f 101/46/4 100/43/4 90/43/4 
f 93/46/49 92/45/49 105/45/49 
f 105/45/49 101/46/49 93/46/49 
f 92/45/2 91/44/2 103/44/2 
f 103/44/2 105/45/2 92/45/2 
f 91/44/59 90/43/59 100/43/59 
f 100/43/59 103/44/59 91/44/59 
f 17/38/5 2/10/5 1/47/5 
f 1/47/5 86/39/5 17/38/5 
f 5/19/5 22/18/5 87/40/5 
f 87/40/5 4/48/5 5/19/5 
# 198 faces

