# 3ds Max Wavefront OBJ Exporter v0.97b - (c)2007 guruware
# File Created: 19.04.2014 15:50:22

mtllib grass_50x50.mtl

#
# object Plane01
#

v  -22.7690 0.0000 -23.7741
v  -22.7690 0.0000 26.2259
v  27.2310 0.0000 -23.7741
v  27.2310 0.0000 26.2259
# 4 vertices

vn 0.0000 1.0000 -0.0000
# 1 vertex normals

vt 0.0000 1.0000 0.0000
vt 0.0000 0.0000 0.0000
vt 1.0000 1.0000 0.0000
vt 1.0000 0.0000 0.0000
# 4 texture coords

g Plane01
usemtl green
s 1
f 1/1/1 2/2/1 3/3/1 
f 4/4/1 3/3/1 2/2/1 
# 2 faces

