# 3ds Max Wavefront OBJ Exporter v0.97b - (c)2007 guruware
# File Created: 26.08.2016 19:07:36

mtllib road_2x1_straight.mtl

#
# object Plane01
#

v  -0.2344 -0.2257 3.3775
v  0.2344 -0.2257 3.3775
v  0.2344 -0.2257 8.2814
v  -0.2344 -0.2257 8.2814
v  -0.2344 0.1547 3.3775
v  -0.2344 0.1547 8.2814
v  0.2344 0.1547 8.2814
v  0.2344 0.1547 3.3775
v  -0.2344 -0.2257 -7.3798
v  0.2344 -0.2257 -7.3798
v  0.2344 -0.2257 -2.4759
v  -0.2344 -0.2257 -2.4759
v  -0.2344 0.1547 -7.3798
v  -0.2344 0.1547 -2.4759
v  0.2344 0.1547 -2.4759
v  0.2344 0.1547 -7.3798
v  -3.9856 0.0000 -12.4675
v  -3.9856 0.0000 12.5325
v  4.0144 0.0000 12.5325
v  4.0144 0.0000 -12.4675
v  4.0144 0.2000 12.5325
v  4.0144 0.2000 -12.4675
v  5.0144 0.2000 -12.4675
v  5.0144 0.2000 12.5325
v  -3.9856 0.2000 -12.4675
v  -3.9856 0.2000 12.5325
v  -4.9856 0.2000 12.5325
v  -4.9856 0.2000 -12.4675
# 28 vertices

vn 0.0000 -1.0000 -0.0000
vn 0.0000 1.0000 -0.0000
vn -1.0000 0.0000 -0.0000
vn -0.0000 0.0000 1.0000
vn 1.0000 0.0000 0.0000
vn 0.0000 0.0000 -1.0000
# 6 vertex normals

vt 1.0000 0.0000 0.0000
vt 1.0000 1.0000 0.0000
vt 0.0000 1.0000 0.0000
vt 0.0000 0.0000 0.0000
# 4 texture coords

g Plane01
usemtl white
f 1/1/1 2/2/1 3/3/1 
f 3/3/1 4/4/1 1/1/1 
f 5/4/2 6/1/2 7/2/2 
f 7/2/2 8/3/2 5/4/2 
f 1/4/3 4/1/3 6/2/3 
f 6/2/3 5/3/3 1/4/3 
f 4/4/4 3/1/4 7/2/4 
f 7/2/4 6/3/4 4/4/4 
f 3/4/5 2/1/5 8/2/5 
f 8/2/5 7/3/5 3/4/5 
f 2/4/6 1/1/6 5/2/6 
f 5/2/6 8/3/6 2/4/6 
f 9/1/1 10/2/1 11/3/1 
f 11/3/1 12/4/1 9/1/1 
f 13/4/2 14/1/2 15/2/2 
f 15/2/2 16/3/2 13/4/2 
f 9/4/3 12/1/3 14/2/3 
f 14/2/3 13/3/3 9/4/3 
f 12/4/4 11/1/4 15/2/4 
f 15/2/4 14/3/4 12/4/4 
f 11/4/5 10/1/5 16/2/5 
f 16/2/5 15/3/5 11/4/5 
f 10/4/6 9/1/6 13/2/6 
f 13/2/6 16/3/6 10/4/6 
usemtl road
f 17/4/2 18/1/2 19/2/2 
f 19/2/2 20/3/2 17/4/2 
usemtl grey
f 21/2/3 22/3/3 20/3/3 
f 20/3/3 19/2/3 21/2/3 
f 23/3/2 22/3/2 21/2/2 
f 21/2/2 24/2/2 23/3/2 
f 25/4/5 26/1/5 18/1/5 
f 18/1/5 17/4/5 25/4/5 
f 27/1/2 26/1/2 25/4/2 
f 25/4/2 28/4/2 27/1/2 
# 34 faces

