# 3ds Max Wavefront OBJ Exporter v0.97b - (c)2007 guruware
# File Created: 15.04.2014 19:29:03

mtllib road_2x1_cross_01.mtl

#
# object Plane04
#

v  -25.2344 -0.2257 -21.6225
v  -24.7656 -0.2257 -21.6225
v  -24.7656 -0.2257 -16.7186
v  -25.2344 -0.2257 -16.7186
v  -25.2344 0.1547 -21.6225
v  -25.2344 0.1547 -16.7186
v  -24.7656 0.1547 -16.7186
v  -24.7656 0.1547 -21.6225
v  -25.2344 -0.2257 -32.3798
v  -24.7656 -0.2257 -32.3798
v  -24.7656 -0.2257 -27.4759
v  -25.2344 -0.2257 -27.4759
v  -25.2344 0.1547 -32.3798
v  -25.2344 0.1547 -27.4759
v  -24.7656 0.1547 -27.4759
v  -24.7656 0.1547 -32.3798
v  -19.5000 0.0000 -5.5000
v  -30.5000 0.0000 -5.5000
v  -30.5000 0.0000 -37.5000
v  -19.5000 0.0000 -37.5000
v  -19.5000 0.0000 5.5000
v  -30.5000 0.0000 5.5000
v  -25.2344 -0.2257 28.3775
v  -24.7656 -0.2257 28.3775
v  -24.7656 -0.2257 33.2814
v  -25.2344 -0.2257 33.2814
v  -25.2344 0.1547 28.3775
v  -25.2344 0.1547 33.2814
v  -24.7656 0.1547 33.2814
v  -24.7656 0.1547 28.3775
v  -25.2344 -0.2257 17.6202
v  -24.7656 -0.2257 17.6202
v  -24.7656 -0.2257 22.5241
v  -25.2344 -0.2257 22.5241
v  -25.2344 0.1547 17.6202
v  -25.2344 0.1547 22.5241
v  -24.7656 0.1547 22.5241
v  -24.7656 0.1547 17.6202
v  -19.5000 0.0000 37.5000
v  -30.5000 0.0000 37.5000
v  3.3775 -0.2257 0.2344
v  3.3775 -0.2257 -0.2344
v  8.2814 -0.2257 -0.2344
v  8.2814 -0.2257 0.2344
v  3.3775 0.1547 0.2344
v  8.2814 0.1547 0.2344
v  8.2814 0.1547 -0.2344
v  3.3775 0.1547 -0.2344
v  -7.3798 -0.2257 0.2344
v  -7.3798 -0.2257 -0.2344
v  -2.4759 -0.2257 -0.2344
v  -2.4759 -0.2257 0.2344
v  -7.3798 0.1547 0.2344
v  -2.4759 0.1547 0.2344
v  -2.4759 0.1547 -0.2344
v  -7.3798 0.1547 -0.2344
v  12.5000 0.0000 -5.5000
v  12.5000 0.0000 5.5000
v  -15.1785 -0.2257 -0.2344
v  -14.6492 -0.2257 -0.2344
v  -14.6492 -0.2257 0.2344
v  -15.1785 -0.2257 0.2344
v  -14.6492 0.1547 0.2344
v  -14.6492 0.1547 -0.2344
v  -15.1785 0.1547 -0.2344
v  -15.1785 0.1547 0.2344
v  -10.2746 -0.2257 0.2344
v  -10.2746 -0.2257 -0.2344
v  -10.2746 0.1547 -0.2344
v  -10.2746 0.1547 0.2344
v  -15.1785 -0.2257 -4.6344
v  -15.1785 0.1547 -4.6344
v  -14.6492 0.1547 -4.6344
v  -14.6492 -0.2257 -4.6344
v  -25.2236 -0.2257 -8.9525
v  -25.2236 -0.2257 -9.4818
v  -24.7548 -0.2257 -9.4818
v  -24.7548 -0.2257 -8.9525
v  -24.7548 0.1547 -9.4818
v  -25.2236 0.1547 -9.4818
v  -25.2236 0.1547 -8.9525
v  -24.7548 0.1547 -8.9525
v  -24.7548 -0.2257 -13.8564
v  -25.2236 -0.2257 -13.8564
v  -25.2236 0.1547 -13.8564
v  -24.7548 0.1547 -13.8564
v  -29.6236 -0.2257 -8.9525
v  -29.6236 0.1547 -8.9525
v  -29.6236 0.1547 -9.4818
v  -29.6236 -0.2257 -9.4818
v  -24.7781 -0.2257 9.6287
v  -24.7781 -0.2257 10.1579
v  -25.2469 -0.2257 10.1579
v  -25.2469 -0.2257 9.6287
v  -25.2469 0.1547 10.1579
v  -24.7781 0.1547 10.1579
v  -24.7781 0.1547 9.6287
v  -25.2469 0.1547 9.6287
v  -25.2470 -0.2257 14.5325
v  -24.7781 -0.2257 14.5325
v  -24.7781 0.1547 14.5325
v  -25.2470 0.1547 14.5325
v  -20.3781 -0.2257 9.6287
v  -20.3781 0.1547 9.6287
v  -20.3781 0.1547 10.1579
v  -20.3781 -0.2257 10.1579
# 106 vertices

vn 0.0000 -1.0000 -0.0000
vn 0.0000 1.0000 -0.0000
vn -1.0000 0.0000 -0.0000
vn -0.0000 0.0000 1.0000
vn 1.0000 0.0000 0.0000
vn 0.0000 0.0000 -1.0000
vn 1.0000 0.0000 -0.0000
# 7 vertex normals

vt 1.0000 0.0000 0.0000
vt 1.0000 1.0000 0.0000
vt 0.0000 1.0000 0.0000
vt 0.0000 0.0000 0.0000
vt 1.0000 1.0000 1.0000
vt 0.5000 1.0000 0.0000
vt 0.5000 0.0000 0.0000
# 7 texture coords

g Plane04
usemtl white
s 2
f 1/1/1 2/2/1 3/3/1 
f 3/3/1 4/4/1 1/1/1 
s 4
f 5/4/2 6/1/2 7/2/2 
f 7/2/2 8/3/2 5/4/2 
s 8
f 1/4/3 4/1/3 6/2/3 
f 6/2/3 5/3/3 1/4/3 
s 16
f 4/4/4 3/1/4 7/2/4 
f 7/2/4 6/3/4 4/4/4 
s 32
f 3/4/5 2/1/5 8/2/5 
f 8/2/5 7/3/5 3/4/5 
s 64
f 2/4/6 1/1/6 5/2/6 
f 5/2/6 8/3/6 2/4/6 
s 2
f 9/1/1 10/2/1 11/3/1 
f 11/3/1 12/4/1 9/1/1 
s 4
f 13/4/2 14/1/2 15/2/2 
f 15/2/2 16/3/2 13/4/2 
s 8
f 9/4/3 12/1/3 14/2/3 
f 14/2/3 13/3/3 9/4/3 
s 16
f 12/4/4 11/1/4 15/2/4 
f 15/2/4 14/3/4 12/4/4 
s 32
f 11/4/5 10/1/5 16/2/5 
f 16/2/5 15/3/5 11/4/5 
s 64
f 10/4/6 9/1/6 13/2/6 
f 13/2/6 16/3/6 10/4/6 
usemtl black
s off
f 17/5/1 18/5/1 19/5/1 
f 19/5/1 20/5/1 17/5/1 
f 21/5/1 22/5/1 18/5/1 
f 18/5/1 17/5/1 21/5/1 
usemtl white
s 2
f 23/1/1 24/2/1 25/3/1 
f 25/3/1 26/4/1 23/1/1 
s 4
f 27/4/2 28/1/2 29/2/2 
f 29/2/2 30/3/2 27/4/2 
s 8
f 23/4/3 26/1/3 28/2/3 
f 28/2/3 27/3/3 23/4/3 
s 16
f 26/4/4 25/1/4 29/2/4 
f 29/2/4 28/3/4 26/4/4 
s 32
f 25/4/5 24/1/5 30/2/5 
f 30/2/5 29/3/5 25/4/5 
s 64
f 24/4/6 23/1/6 27/2/6 
f 27/2/6 30/3/6 24/4/6 
s 2
f 31/1/1 32/2/1 33/3/1 
f 33/3/1 34/4/1 31/1/1 
s 4
f 35/4/2 36/1/2 37/2/2 
f 37/2/2 38/3/2 35/4/2 
s 8
f 31/4/3 34/1/3 36/2/3 
f 36/2/3 35/3/3 31/4/3 
s 16
f 34/4/4 33/1/4 37/2/4 
f 37/2/4 36/3/4 34/4/4 
s 32
f 33/4/5 32/1/5 38/2/5 
f 38/2/5 37/3/5 33/4/5 
s 64
f 32/4/6 31/1/6 35/2/6 
f 35/2/6 38/3/6 32/4/6 
usemtl black
s off
f 39/5/1 40/5/1 22/5/1 
f 22/5/1 21/5/1 39/5/1 
usemtl white
s 2
f 41/1/1 42/2/1 43/3/1 
f 43/3/1 44/4/1 41/1/1 
s 4
f 45/4/2 46/1/2 47/2/2 
f 47/2/2 48/3/2 45/4/2 
s 8
f 41/4/4 44/1/4 46/2/4 
f 46/2/4 45/3/4 41/4/4 
s 16
f 44/4/5 43/1/5 47/2/5 
f 47/2/5 46/3/5 44/4/5 
s 32
f 43/4/6 42/1/6 48/2/6 
f 48/2/6 47/3/6 43/4/6 
s 64
f 42/4/3 41/1/3 45/2/3 
f 45/2/3 48/3/3 42/4/3 
s 2
f 49/1/1 50/2/1 51/3/1 
f 51/3/1 52/4/1 49/1/1 
s 4
f 53/4/2 54/1/2 55/2/2 
f 55/2/2 56/3/2 53/4/2 
s 8
f 49/4/4 52/1/4 54/2/4 
f 54/2/4 53/3/4 49/4/4 
s 16
f 52/4/5 51/1/5 55/2/5 
f 55/2/5 54/3/5 52/4/5 
s 32
f 51/4/6 50/1/6 56/2/6 
f 56/2/6 55/3/6 51/4/6 
s 64
f 50/4/3 49/1/3 53/2/3 
f 53/2/3 56/3/3 50/4/3 
usemtl black
s off
f 57/5/1 58/5/1 21/5/1 
f 21/5/1 17/5/1 57/5/1 
usemtl white
s 2
f 59/2/1 60/6/1 61/7/1 
f 61/7/1 62/1/1 59/2/1 
s 4
f 63/7/2 64/6/2 65/3/2 
f 65/3/2 66/4/2 63/7/2 
s 8
f 61/7/4 63/6/4 66/3/4 
f 66/3/4 62/4/4 61/7/4 
s 16
f 67/4/5 68/1/5 69/2/5 
f 69/2/5 70/3/5 67/4/5 
s 32
f 60/7/6 64/6/6 69/3/6 
f 69/3/6 68/4/6 60/7/6 
s 64
f 59/4/3 62/1/3 66/2/3 
f 66/2/3 65/3/3 59/4/3 
s 2
f 68/3/1 67/4/1 61/7/1 
f 61/7/1 60/6/1 68/3/1 
s 4
f 70/1/2 69/2/2 64/6/2 
f 64/6/2 63/7/2 70/1/2 
s 8
f 67/1/4 70/2/4 63/6/4 
f 63/6/4 61/7/4 67/1/4 
s 32
f 71/1/6 72/2/6 73/6/6 
f 73/6/6 74/7/6 71/1/6 
s off
f 60/6/1 59/2/1 71/1/1 
f 71/1/1 74/7/1 60/6/1 
f 59/4/3 65/3/3 72/2/3 
f 72/2/3 71/1/3 59/4/3 
f 65/3/2 64/6/2 73/6/2 
f 73/6/2 72/2/2 65/3/2 
f 64/6/5 60/7/5 74/7/5 
f 74/7/5 73/6/5 64/6/5 
s 2
f 75/2/1 76/6/1 77/7/1 
f 77/7/1 78/1/1 75/2/1 
s 4
f 79/7/2 80/6/2 81/3/2 
f 81/3/2 82/4/2 79/7/2 
s 8
f 77/7/5 79/6/5 82/3/5 
f 82/3/5 78/4/5 77/7/5 
s 16
f 83/4/6 84/1/6 85/2/6 
f 85/2/6 86/3/6 83/4/6 
s 32
f 76/7/3 80/6/3 85/3/3 
f 85/3/3 84/4/3 76/7/3 
s 64
f 75/4/4 78/1/4 82/2/4 
f 82/2/4 81/3/4 75/4/4 
s 2
f 84/3/1 83/4/1 77/7/1 
f 77/7/1 76/6/1 84/3/1 
s 4
f 86/1/2 85/2/2 80/6/2 
f 80/6/2 79/7/2 86/1/2 
s 8
f 83/1/5 86/2/5 79/6/5 
f 79/6/5 77/7/5 83/1/5 
s 32
f 87/1/3 88/2/3 89/6/3 
f 89/6/3 90/7/3 87/1/3 
s off
f 76/6/1 75/2/1 87/1/1 
f 87/1/1 90/7/1 76/6/1 
f 75/4/4 81/3/4 88/2/4 
f 88/2/4 87/1/4 75/4/4 
f 81/3/2 80/6/2 89/6/2 
f 89/6/2 88/2/2 81/3/2 
f 80/6/6 76/7/6 90/7/6 
f 90/7/6 89/6/6 80/6/6 
s 2
f 91/2/1 92/6/1 93/7/1 
f 93/7/1 94/1/1 91/2/1 
s 4
f 95/7/2 96/6/2 97/3/2 
f 97/3/2 98/4/2 95/7/2 
s 8
f 93/7/3 95/6/3 98/3/3 
f 98/3/3 94/4/3 93/7/3 
s 16
f 99/4/4 100/1/4 101/2/4 
f 101/2/4 102/3/4 99/4/4 
s 32
f 92/7/5 96/6/5 101/3/5 
f 101/3/5 100/4/5 92/7/5 
s 64
f 91/4/6 94/1/6 98/2/6 
f 98/2/6 97/3/6 91/4/6 
s 2
f 100/3/1 99/4/1 93/7/1 
f 93/7/1 92/6/1 100/3/1 
s 4
f 102/1/2 101/2/2 96/6/2 
f 96/6/2 95/7/2 102/1/2 
s 8
f 99/1/3 102/2/3 95/6/3 
f 95/6/3 93/7/3 99/1/3 
s 32
f 103/1/7 104/2/7 105/6/7 
f 105/6/7 106/7/7 103/1/7 
s off
f 92/6/1 91/2/1 103/1/1 
f 103/1/1 106/7/1 92/6/1 
f 91/4/6 97/3/6 104/2/6 
f 104/2/6 103/1/6 91/4/6 
f 97/3/2 96/6/2 105/6/2 
f 105/6/2 104/2/2 97/3/2 
f 96/6/4 92/7/4 106/7/4 
f 106/7/4 105/6/4 96/6/4 
# 164 faces

