# 3ds Max Wavefront OBJ Exporter v0.97b - (c)2007 guruware
# File Created: 18.04.2014 17:08:53

mtllib road_2x1_zebra_crossing.mtl

#
# object Plane01
#

v  -12.5000 0.0000 5.5000
v  -6.2500 0.0000 5.5000
v  -6.2500 0.0000 2.7500
v  -12.5000 0.0000 2.7500
v  0.0000 0.0000 5.5000
v  0.0000 0.0000 2.7500
v  6.2500 0.0000 5.5000
v  6.2500 0.0000 2.7500
v  12.5000 0.0000 5.5000
v  12.5000 0.0000 2.7500
v  -6.2500 0.0000 -0.0000
v  -12.5000 0.0000 -0.0000
v  0.0000 0.0000 -0.0000
v  6.2500 0.0000 -0.0000
v  12.5000 0.0000 -0.0000
v  -6.2500 0.0000 -2.7500
v  -12.5000 0.0000 -2.7500
v  0.0000 0.0000 -2.7500
v  6.2500 0.0000 -2.7500
v  12.5000 0.0000 -2.7500
v  -6.2500 0.0000 -5.5000
v  -12.5000 0.0000 -5.5000
v  0.0000 0.0000 -5.5000
v  6.2500 0.0000 -5.5000
v  12.5000 0.0000 -5.5000
v  -7.3798 -0.2257 0.2344
v  -7.3798 -0.2257 -0.2344
v  -2.4759 -0.2257 -0.2344
v  -2.4759 -0.2257 0.2344
v  -7.3798 0.1547 0.2344
v  -2.4759 0.1547 0.2344
v  -2.4759 0.1547 -0.2344
v  -7.3798 0.1547 -0.2344
# 33 vertices

vn 0.0000 1.0000 -0.0000
vn 0.0000 -1.0000 -0.0000
vn 0.0000 0.0000 1.0000
vn 1.0000 0.0000 -0.0000
vn 0.0000 0.0000 -1.0000
vn -1.0000 0.0000 -0.0000
# 6 vertex normals

vt 0.0000 0.0000 0.0000
vt 0.2500 0.0000 0.0000
vt 0.2500 0.2500 0.0000
vt 0.0000 0.2500 0.0000
vt 0.5000 0.0000 0.0000
vt 0.5000 0.2500 0.0000
vt 0.7500 0.0000 0.0000
vt 0.7500 0.2500 0.0000
vt 1.0000 0.0000 0.0000
vt 1.0000 0.2500 0.0000
vt 0.2500 0.5000 0.0000
vt 0.0000 0.5000 0.0000
vt 0.5000 0.5000 0.0000
vt 0.7500 0.5000 0.0000
vt 1.0000 0.5000 0.0000
vt 0.2500 0.7500 0.0000
vt 0.0000 0.7500 0.0000
vt 0.5000 0.7500 0.0000
vt 0.7500 0.7500 0.0000
vt 1.0000 0.7500 0.0000
vt 0.2500 1.0000 0.0000
vt 0.0000 1.0000 0.0000
vt 0.5000 1.0000 0.0000
vt 0.7500 1.0000 0.0000
vt 1.0000 1.0000 0.0000
# 25 texture coords

g Plane01
usemtl black
s 1
f 1/1/1 2/2/1 3/3/1 
f 3/3/1 4/4/1 1/1/1 
f 2/2/1 5/5/1 6/6/1 
f 6/6/1 3/3/1 2/2/1 
f 5/5/1 7/7/1 8/8/1 
f 8/8/1 6/6/1 5/5/1 
f 7/7/1 9/9/1 10/10/1 
f 10/10/1 8/8/1 7/7/1 
f 4/4/1 3/3/1 11/11/1 
f 11/11/1 12/12/1 4/4/1 
f 3/3/1 6/6/1 13/13/1 
f 13/13/1 11/11/1 3/3/1 
f 6/6/1 8/8/1 14/14/1 
f 14/14/1 13/13/1 6/6/1 
f 8/8/1 10/10/1 15/15/1 
f 15/15/1 14/14/1 8/8/1 
f 12/12/1 11/11/1 16/16/1 
f 16/16/1 17/17/1 12/12/1 
f 11/11/1 13/13/1 18/18/1 
f 18/18/1 16/16/1 11/11/1 
f 13/13/1 14/14/1 19/19/1 
f 19/19/1 18/18/1 13/13/1 
f 14/14/1 15/15/1 20/20/1 
f 20/20/1 19/19/1 14/14/1 
f 17/17/1 16/16/1 21/21/1 
f 21/21/1 22/22/1 17/17/1 
f 16/16/1 18/18/1 23/23/1 
f 23/23/1 21/21/1 16/16/1 
f 18/18/1 19/19/1 24/24/1 
f 24/24/1 23/23/1 18/18/1 
f 19/19/1 20/20/1 25/25/1 
f 25/25/1 24/24/1 19/19/1 
usemtl white
s 2
f 26/9/2 27/25/2 28/22/2 
f 28/22/2 29/1/2 26/9/2 
s 4
f 30/1/1 31/9/1 32/25/1 
f 32/25/1 33/22/1 30/1/1 
s 8
f 26/1/3 29/9/3 31/25/3 
f 31/25/3 30/22/3 26/1/3 
s 16
f 29/1/4 28/9/4 32/25/4 
f 32/25/4 31/22/4 29/1/4 
s 32
f 28/1/5 27/9/5 33/25/5 
f 33/25/5 32/22/5 28/1/5 
s 64
f 27/1/6 26/9/6 30/25/6 
f 30/25/6 33/22/6 27/1/6 
# 44 faces

#
# object Box01
#

v  0.2320 -0.0961 5.0032
v  0.2320 -0.0961 3.6338
v  10.6365 -0.0961 3.6338
v  10.6365 -0.0961 5.0032
v  0.2320 0.1145 5.0032
v  10.6365 0.1145 5.0032
v  10.6365 0.1145 3.6338
v  0.2320 0.1145 3.6338
# 8 vertices

vn 0.0000 -1.0000 -0.0000
vn 0.0000 1.0000 -0.0000
vn 0.0000 0.0000 1.0000
vn 1.0000 0.0000 -0.0000
vn 0.0000 0.0000 -1.0000
vn -1.0000 0.0000 -0.0000
# 6 vertex normals

vt 1.0000 0.0000 0.0000
vt 1.0000 1.0000 0.0000
vt 0.0000 1.0000 0.0000
vt 0.0000 0.0000 0.0000
# 4 texture coords

g Box01
usemtl white
s 2
f 34/26/7 35/27/7 36/28/7 
f 36/28/7 37/29/7 34/26/7 
s 4
f 38/29/8 39/26/8 40/27/8 
f 40/27/8 41/28/8 38/29/8 
s 8
f 34/29/9 37/26/9 39/27/9 
f 39/27/9 38/28/9 34/29/9 
s 16
f 37/29/10 36/26/10 40/27/10 
f 40/27/10 39/28/10 37/29/10 
s 32
f 36/29/11 35/26/11 41/27/11 
f 41/27/11 40/28/11 36/29/11 
s 64
f 35/29/12 34/26/12 38/27/12 
f 38/27/12 41/28/12 35/29/12 
# 12 faces

#
# object Box02
#

v  0.2320 -0.0961 2.0408
v  0.2320 -0.0961 0.6714
v  10.6365 -0.0961 0.6714
v  10.6365 -0.0961 2.0408
v  0.2320 0.1145 2.0408
v  10.6365 0.1145 2.0408
v  10.6365 0.1145 0.6714
v  0.2320 0.1145 0.6714
# 8 vertices

vn 0.0000 -1.0000 -0.0000
vn 0.0000 1.0000 -0.0000
vn 0.0000 0.0000 1.0000
vn 1.0000 0.0000 -0.0000
vn 0.0000 0.0000 -1.0000
vn -1.0000 0.0000 -0.0000
# 6 vertex normals

vt 1.0000 0.0000 0.0000
vt 1.0000 1.0000 0.0000
vt 0.0000 1.0000 0.0000
vt 0.0000 0.0000 0.0000
# 4 texture coords

g Box02
usemtl white
s 2
f 42/30/13 43/31/13 44/32/13 
f 44/32/13 45/33/13 42/30/13 
s 4
f 46/33/14 47/30/14 48/31/14 
f 48/31/14 49/32/14 46/33/14 
s 8
f 42/33/15 45/30/15 47/31/15 
f 47/31/15 46/32/15 42/33/15 
s 16
f 45/33/16 44/30/16 48/31/16 
f 48/31/16 47/32/16 45/33/16 
s 32
f 44/33/17 43/30/17 49/31/17 
f 49/31/17 48/32/17 44/33/17 
s 64
f 43/33/18 42/30/18 46/31/18 
f 46/31/18 49/32/18 43/33/18 
# 12 faces

#
# object Box03
#

v  0.2320 -0.0961 -0.9561
v  0.2320 -0.0961 -2.3255
v  10.6365 -0.0961 -2.3255
v  10.6365 -0.0961 -0.9561
v  0.2320 0.1145 -0.9561
v  10.6365 0.1145 -0.9561
v  10.6365 0.1145 -2.3255
v  0.2320 0.1145 -2.3255
# 8 vertices

vn 0.0000 -1.0000 -0.0000
vn 0.0000 1.0000 -0.0000
vn 0.0000 0.0000 1.0000
vn 1.0000 0.0000 -0.0000
vn 0.0000 0.0000 -1.0000
vn -1.0000 0.0000 -0.0000
# 6 vertex normals

vt 1.0000 0.0000 0.0000
vt 1.0000 1.0000 0.0000
vt 0.0000 1.0000 0.0000
vt 0.0000 0.0000 0.0000
# 4 texture coords

g Box03
usemtl white
s 2
f 50/34/19 51/35/19 52/36/19 
f 52/36/19 53/37/19 50/34/19 
s 4
f 54/37/20 55/34/20 56/35/20 
f 56/35/20 57/36/20 54/37/20 
s 8
f 50/37/21 53/34/21 55/35/21 
f 55/35/21 54/36/21 50/37/21 
s 16
f 53/37/22 52/34/22 56/35/22 
f 56/35/22 55/36/22 53/37/22 
s 32
f 52/37/23 51/34/23 57/35/23 
f 57/35/23 56/36/23 52/37/23 
s 64
f 51/37/24 50/34/24 54/35/24 
f 54/35/24 57/36/24 51/37/24 
# 12 faces

#
# object Box04
#

v  0.2320 -0.0961 -3.7934
v  0.2320 -0.0961 -5.1628
v  10.6365 -0.0961 -5.1628
v  10.6365 -0.0961 -3.7934
v  0.2320 0.1145 -3.7934
v  10.6365 0.1145 -3.7934
v  10.6365 0.1145 -5.1628
v  0.2320 0.1145 -5.1628
# 8 vertices

vn 0.0000 -1.0000 -0.0000
vn 0.0000 1.0000 -0.0000
vn 0.0000 0.0000 1.0000
vn 1.0000 0.0000 -0.0000
vn 0.0000 0.0000 -1.0000
vn -1.0000 0.0000 -0.0000
# 6 vertex normals

vt 1.0000 0.0000 0.0000
vt 1.0000 1.0000 0.0000
vt 0.0000 1.0000 0.0000
vt 0.0000 0.0000 0.0000
# 4 texture coords

g Box04
usemtl white
s 2
f 58/38/25 59/39/25 60/40/25 
f 60/40/25 61/41/25 58/38/25 
s 4
f 62/41/26 63/38/26 64/39/26 
f 64/39/26 65/40/26 62/41/26 
s 8
f 58/41/27 61/38/27 63/39/27 
f 63/39/27 62/40/27 58/41/27 
s 16
f 61/41/28 60/38/28 64/39/28 
f 64/39/28 63/40/28 61/41/28 
s 32
f 60/41/29 59/38/29 65/39/29 
f 65/39/29 64/40/29 60/41/29 
s 64
f 59/41/30 58/38/30 62/39/30 
f 62/39/30 65/40/30 59/41/30 
# 12 faces

