# 3ds Max Wavefront OBJ Exporter v0.97b - (c)2007 guruware
# File Created: 19.04.2014 20:37:40

mtllib road_2x1_straight.mtl

#
# object Plane01
#

v  3.3775 -0.2257 0.2344
v  3.3775 -0.2257 -0.2344
v  8.2814 -0.2257 -0.2344
v  8.2814 -0.2257 0.2344
v  3.3775 0.1547 0.2344
v  8.2814 0.1547 0.2344
v  8.2814 0.1547 -0.2344
v  3.3775 0.1547 -0.2344
v  -7.3798 -0.2257 0.2344
v  -7.3798 -0.2257 -0.2344
v  -2.4759 -0.2257 -0.2344
v  -2.4759 -0.2257 0.2344
v  -7.3798 0.1547 0.2344
v  -2.4759 0.1547 0.2344
v  -2.4759 0.1547 -0.2344
v  -7.3798 0.1547 -0.2344
v  12.5000 0.0000 -5.5000
v  12.5000 0.0000 5.5000
v  -12.5000 0.0000 5.5000
v  -12.5000 0.0000 -5.5000
# 20 vertices

vn 0.0000 -1.0000 -0.0000
vn 0.0000 1.0000 -0.0000
vn 0.0000 0.0000 1.0000
vn 1.0000 0.0000 -0.0000
vn 0.0000 0.0000 -1.0000
vn -1.0000 0.0000 -0.0000
# 6 vertex normals

vt 1.0000 0.0000 0.0000
vt 1.0000 1.0000 0.0000
vt 0.0000 1.0000 0.0000
vt 0.0000 0.0000 0.0000
vt 1.0000 1.0000 1.0000
# 5 texture coords

g Plane01
usemtl white
s 2
f 1/1/1 2/2/1 3/3/1 
f 3/3/1 4/4/1 1/1/1 
s 4
f 5/4/2 6/1/2 7/2/2 
f 7/2/2 8/3/2 5/4/2 
s 8
f 1/4/3 4/1/3 6/2/3 
f 6/2/3 5/3/3 1/4/3 
s 16
f 4/4/4 3/1/4 7/2/4 
f 7/2/4 6/3/4 4/4/4 
s 32
f 3/4/5 2/1/5 8/2/5 
f 8/2/5 7/3/5 3/4/5 
s 64
f 2/4/6 1/1/6 5/2/6 
f 5/2/6 8/3/6 2/4/6 
s 2
f 9/1/1 10/2/1 11/3/1 
f 11/3/1 12/4/1 9/1/1 
s 4
f 13/4/2 14/1/2 15/2/2 
f 15/2/2 16/3/2 13/4/2 
s 8
f 9/4/3 12/1/3 14/2/3 
f 14/2/3 13/3/3 9/4/3 
s 16
f 12/4/4 11/1/4 15/2/4 
f 15/2/4 14/3/4 12/4/4 
s 32
f 11/4/5 10/1/5 16/2/5 
f 16/2/5 15/3/5 11/4/5 
s 64
f 10/4/6 9/1/6 13/2/6 
f 13/2/6 16/3/6 10/4/6 
usemtl black
s off
f 17/5/1 18/5/1 19/5/1 
f 19/5/1 20/5/1 17/5/1 
# 26 faces

