# 3ds Max Wavefront OBJ Exporter v0.97b - (c)2007 guruware
# File Created: 13.04.2014 11:40:47

mtllib station_sign.mtl

#
# object Plane01
#

v  1.6288 0.2204 4.7508
v  1.6288 0.2204 -6.3735
v  1.6288 1.2003 -6.3735
v  1.6288 1.3268 4.7508
v  -1.9036 0.2204 -6.3735
v  -1.9036 1.2003 -6.3735
v  -1.9036 0.2204 4.7916
v  -1.9036 1.3268 4.7916
# 8 vertices

vn 1.0000 -0.0000 -0.0000
vn -0.0000 0.0000 -1.0000
vn -1.0000 0.0000 0.0000
# 3 vertex normals

vt 0.0000 0.0000 0.0000
vt 1.0000 0.0000 0.0000
vt 1.0000 1.0000 0.0000
vt 0.0000 1.0000 0.0000
# 4 texture coords

g Plane01
usemtl red
s 1
f 1/1/1 2/2/1 3/3/1 
f 3/3/1 4/4/1 1/1/1 
s off
f 3/3/2 2/2/2 5/2/2 
f 5/2/2 6/3/2 3/3/2 
f 6/3/3 5/2/3 7/2/3 
f 7/2/3 8/3/3 6/3/3 
# 6 faces

